HIERARCHY
ROOT Hips
{
	OFFSET 182.371002 92.491722 19.190800
	CHANNELS 6 Xposition Yposition Zposition Zrotation Yrotation Xrotation 
	JOINT LeftUpLeg
	{
		OFFSET 0.103461 1.857828 10.548504
		CHANNELS 3 Zrotation Yrotation Xrotation
		JOINT LeftLeg
		{
			OFFSET 43.500008 -0.000031 0.000006
			CHANNELS 3 Zrotation Yrotation Xrotation
			JOINT LeftFoot
			{
				OFFSET 42.372200 0.000019 -0.000010
				CHANNELS 3 Zrotation Yrotation Xrotation
				JOINT LeftToe
				{
					OFFSET 17.299999 -0.000000 0.000002
					CHANNELS 3 Zrotation Yrotation Xrotation
					End Site
					{
						OFFSET 0.000000 0.000000 0.000000
					}
				}
			}
		}
	}
	JOINT RightUpLeg
	{
		OFFSET 0.103457 1.857829 -10.548504
		CHANNELS 3 Zrotation Yrotation Xrotation
		JOINT RightLeg
		{
			OFFSET 43.500046 -0.000019 0.000011
			CHANNELS 3 Zrotation Yrotation Xrotation
			JOINT RightFoot
			{
				OFFSET 42.372261 0.000000 0.000008
				CHANNELS 3 Zrotation Yrotation Xrotation
				JOINT RightToe
				{
					OFFSET 17.299990 -0.000006 0.000008
					CHANNELS 3 Zrotation Yrotation Xrotation
					End Site
					{
						OFFSET 0.000000 0.000000 0.000000
					}
				}
			}
		}
	}
	JOINT Spine
	{
		OFFSET 6.901969 -2.603727 -0.000006
		CHANNELS 3 Zrotation Yrotation Xrotation
		JOINT Spine1
		{
			OFFSET 12.588100 -0.000002 0.000002
			CHANNELS 3 Zrotation Yrotation Xrotation
			JOINT Spine2
			{
				OFFSET 12.343195 0.000004 0.000008
				CHANNELS 3 Zrotation Yrotation Xrotation
				JOINT Neck
				{
					OFFSET 25.832905 -0.000008 -0.000002
					CHANNELS 3 Zrotation Yrotation Xrotation
					JOINT Head
					{
						OFFSET 11.766608 0.000010 -0.000008
						CHANNELS 3 Zrotation Yrotation Xrotation
						End Site
						{
							OFFSET 0.000000 0.000000 0.000000
						}
					}
				}
				JOINT LeftShoulder
				{
					OFFSET 19.745903 -1.480370 6.000106
					CHANNELS 3 Zrotation Yrotation Xrotation
					JOINT LeftArm
					{
						OFFSET 11.284119 -0.000006 -0.000014
						CHANNELS 3 Zrotation Yrotation Xrotation
						JOINT LeftForeArm
						{
							OFFSET 33.000050 0.000004 0.000026
							CHANNELS 3 Zrotation Yrotation Xrotation
							JOINT LeftHand
							{
								OFFSET 25.200020 0.000017 0.000004
								CHANNELS 3 Zrotation Yrotation Xrotation
								End Site
								{
									OFFSET 0.000000 0.000000 0.000000
								}
							}
						}
					}
				}
				JOINT RightShoulder
				{
					OFFSET 19.746099 -1.480375 -6.000082
					CHANNELS 3 Zrotation Yrotation Xrotation
					JOINT RightArm
					{
						OFFSET 11.284140 -0.000015 -0.000008
						CHANNELS 3 Zrotation Yrotation Xrotation
						JOINT RightForeArm
						{
							OFFSET 33.000084 0.000016 0.000002
							CHANNELS 3 Zrotation Yrotation Xrotation
							JOINT RightHand
							{
								OFFSET 25.199783 0.000142 0.000437
								CHANNELS 3 Zrotation Yrotation Xrotation
								End Site
								{
									OFFSET 0.000000 0.000000 0.000000
								}
							}
						}
					}
				}
			}
		}
	}
}
MOTION
Frames: 8
Frame Time: 0.033333
120.298203 91.354797 -21.587240 83.180188 -1.767518 -11.996948 165.358866 -9.436402 -177.282491 -50.391995 -0.771981 -2.453983 77.442467 0.098111 -6.094496 21.454550 0.003091 0.000002 -175.548101 0.540802 174.584703 -17.229154 3.359794 3.602535 89.014980 -2.148402 2.399346 21.454558 -0.003109 -0.000017 8.910466 0.304922 -0.095464 7.807742 0.615519 -0.170171 7.489643 0.614616 -0.173882 10.243892 4.628680 5.371734 -6.235402 -9.130916 8.259231 -158.806529 -73.707624 -23.164411 -25.627566 59.234426 28.060172 -27.456071 -15.468720 1.212796 4.056527 -23.416532 -4.815383 174.317629 69.527112 -4.550719 -22.731054 -48.460660 -31.883859 -33.765669 18.315687 -1.547685 8.107733 5.729900 -6.581484 
119.949203 91.390404 -22.247520 82.924077 -1.388233 -12.264038 163.386253 -8.158097 -178.913281 -52.717668 -1.092008 -2.133740 77.798143 -0.094724 -6.081852 21.454550 0.003091 0.000001 -175.116269 0.664306 174.878948 -17.313647 3.358773 3.301699 89.262567 -2.041735 1.817160 21.454558 -0.003108 -0.000017 8.964551 0.246694 0.010966 7.916400 0.492004 0.038752 7.598278 0.492365 0.035791 10.406435 4.602500 4.995150 -6.050365 -8.672731 7.727679 -159.028469 -73.855621 -22.934414 -25.847944 59.714329 28.158611 -29.438211 -16.092725 1.288913 3.620767 -24.806731 -3.339850 173.750505 69.501048 -5.136590 -22.783150 -47.979490 -32.079575 -33.301171 18.064385 -1.521143 8.423788 5.488188 -4.791731 
119.446098 91.357887 -22.852989 82.833911 -1.018971 -12.501953 161.961790 -6.805205 179.181912 -52.601619 -1.441828 -0.614910 77.630386 -1.268758 -6.474195 21.454553 0.003092 0.000000 -174.924027 0.771807 175.407700 -17.769688 3.267655 2.877906 89.766574 -1.837847 1.302869 21.454558 -0.003108 -0.000018 8.987024 0.178392 0.105955 7.961526 0.349031 0.223916 7.643433 0.350514 0.221808 10.358345 4.825843 4.699690 -6.042670 -8.610996 7.422770 -159.079477 -74.318824 -22.874816 -25.613816 60.159370 28.461549 -31.589601 -16.501143 1.357746 2.187550 -25.620815 -0.440833 173.221998 69.688973 -5.676077 -22.813067 -48.063450 -31.906494 -32.648359 17.887610 -1.495469 8.384818 5.242889 -3.836063 
118.797302 91.235909 -23.432430 82.853787 -0.785532 -12.645019 161.175840 -5.432693 178.443815 -50.360586 -2.757762 0.179056 77.692924 -1.863954 -6.753276 21.454543 0.003091 -0.000001 -174.793461 0.731201 176.091347 -18.418660 3.116541 2.436798 90.492186 -1.598268 0.927409 21.454557 -0.003108 -0.000017 8.985291 0.150390 0.168803 7.958166 0.288785 0.347529 7.640083 0.291012 0.345785 10.145344 4.647612 4.539511 -5.976156 -8.462072 7.208150 -159.219660 -74.458419 -22.729010 -25.190163 60.061187 29.407390 -33.447856 -16.827838 1.418326 0.744536 -26.359741 2.754059 172.724419 69.844770 -6.184512 -22.499855 -48.196291 -31.713538 -32.383972 17.686703 -1.476876 8.472985 5.503092 -3.481950 
118.065399 91.075607 -23.979561 83.066268 -0.656404 -12.672973 160.778760 -3.902893 178.160335 -46.217052 -3.844894 0.026573 77.916653 -1.759246 -6.943800 21.454551 0.003092 -0.000001 -174.688426 0.578400 176.718837 -18.911938 3.026170 2.101536 91.192711 -1.431852 0.533876 21.454557 -0.003109 -0.000018 8.944269 0.166209 0.201544 7.876283 0.318282 0.413911 7.558193 0.320914 0.411988 10.060921 4.140699 4.518329 -6.212828 -8.089256 7.076033 -159.664114 -74.448618 -22.273623 -24.893364 59.537693 30.735698 -34.821763 -16.863245 1.451466 -0.293928 -26.895540 5.386321 172.477603 69.924649 -6.436520 -22.005481 -48.276989 -31.915237 -32.331906 17.616378 -1.471244 8.623697 6.043035 -3.405124 
117.212601 90.946487 -24.511999 83.394916 -0.516960 -12.578978 161.012270 -2.145707 177.998350 -40.212411 -4.216940 -0.733825 77.955415 -1.172486 -6.817191 21.454553 0.003092 0.000001 -174.368063 0.431396 177.038298 -18.891738 3.037441 2.006577 91.731940 -1.420715 0.179532 21.454560 -0.003107 -0.000018 8.879634 0.180389 0.212541 7.747105 0.346115 0.436657 7.429023 0.348883 0.434563 9.861759 4.130465 4.573227 -6.567333 -8.172944 7.188693 -160.045785 -74.725323 -21.878500 -24.951909 59.110212 32.056950 -35.568941 -16.843827 1.467535 -0.704300 -26.657540 6.788441 172.168715 70.023810 -6.751572 -21.319536 -48.455780 -32.368874 -32.472984 17.668350 -1.477611 8.519955 6.547210 -3.390057 
116.220497 90.845863 -25.017380 83.788615 -0.394174 -12.568970 161.714509 -0.373200 178.053101 -33.159175 -4.022065 -2.091109 77.324032 -0.119269 -6.324036 21.454555 0.003092 0.000000 -173.811348 0.317900 177.164807 -18.415773 3.079258 1.958480 92.165698 -1.426912 -0.085841 21.454562 -0.003107 -0.000017 8.801056 0.200673 0.228767 7.590098 0.385880 0.470176 7.271999 0.388850 0.467842 9.561391 4.159172 4.644275 -7.016491 -8.375897 7.364386 -159.887366 -74.974515 -22.037204 -25.359109 58.898333 32.769509 -35.598263 -16.687535 1.458119 -0.991030 -25.861693 7.112214 171.521746 70.147593 -7.414419 -20.457629 -48.599347 -33.330599 -32.610001 17.791661 -1.488483 8.399319 6.864319 -3.117641 
115.146797 90.742500 -25.516230 84.309717 -0.333000 -12.619995 162.708643 1.198594 178.535203 -25.469917 -3.548418 -3.760828 76.343579 1.197527 -5.626244 21.454551 0.003092 -0.000002 -173.171646 0.143296 177.138101 -17.636037 3.124914 1.951305 92.563933 -1.446749 -0.261635 21.454558 -0.003109 -0.000018 8.698663 0.242860 0.233594 7.385516 0.470298 0.482175 7.067426 0.473336 0.479332 9.275470 3.928061 4.739985 -7.562288 -8.396930 7.505475 -159.673772 -75.018918 -22.255313 -25.681807 58.704294 33.182664 -35.229187 -16.372833 1.429185 -0.940824 -25.184929 7.237840 170.898805 70.227711 -8.053280 -19.717252 -48.573430 -34.327899 -32.580405 17.728313 -1.483779 8.230595 6.925229 -3.289401 
